<svg width="375" height="326" viewBox="0 0 375 326" fill="none" xmlns="http://www.w3.org/2000/svg">
<style>
    /* This SVG file has been generated by image editing software, with the exception of the CSS below. */

    path {
        animation: path-kf 1.5s infinite linear;
    }

    @keyframes path-kf {
        0% {
            stroke-dashoffset: 0;
        }

        100% {
            stroke-dashoffset: 8;
        }
    }
</style>
<path d="M109.487 100.88L90 120.349L109.487 139.819L128.974 120.349L109.487 100.88Z" fill="white"/>
<path d="M109.487 287.06L90 306.53L109.487 326L128.974 306.53L109.487 287.06Z" fill="white"/>
<path d="M79 190L2 190" stroke="url(#paint0_linear)" stroke-width="3" stroke-linecap="round" stroke-dasharray="3 5"/>
<path d="M79 307L2 307" stroke="url(#paint1_linear)" stroke-width="3" stroke-linecap="round" stroke-dasharray="3 5"/>
<path d="M109 65L109 2" stroke="url(#paint2_linear)" stroke-width="3" stroke-linecap="round" stroke-dasharray="3 5"/>
<ellipse cx="230.064" cy="192.145" rx="19.4872" ry="19.4699" fill="white"/>
<ellipse cx="355.513" cy="42.4699" rx="19.4872" ry="19.4699" fill="white"/>
<rect x="336.026" y="105.747" width="38.9744" height="38.9398" fill="white"/>
<rect x="336.026" y="287.06" width="38.9744" height="38.9398" fill="white"/>
<rect x="90" y="170.241" width="38.9744" height="38.9398" fill="white"/>
<path d="M109 87.5V65H169V42H230M321 42H230M230 159V42M230 225V249.5H109.5M109.5 249.5V225M109.5 249.5V275.5M263 192H355.5M355.5 192V154.5M355.5 192V249.5M355.5 274V249.5M355.5 249.5H285V306.5H142.5" stroke="white" stroke-width="3" stroke-linecap="round" stroke-linejoin="round" stroke-dasharray="3 5"/>
<defs>
<linearGradient id="paint0_linear" x1="2" y1="189.5" x2="79" y2="189.5" gradientUnits="userSpaceOnUse">
<stop stop-color="white" stop-opacity="0"/>
<stop offset="1" stop-color="white"/>
</linearGradient>
<linearGradient id="paint1_linear" x1="2" y1="306.5" x2="79" y2="306.5" gradientUnits="userSpaceOnUse">
<stop stop-color="white" stop-opacity="0"/>
<stop offset="1" stop-color="white"/>
</linearGradient>
<linearGradient id="paint2_linear" x1="109.5" y1="2" x2="109.5" y2="65" gradientUnits="userSpaceOnUse">
<stop stop-color="white" stop-opacity="0"/>
<stop offset="1" stop-color="white"/>
</linearGradient>
</defs>
</svg>
